<svg width="20" height="20" viewBox="0 0 20 20" fill="none" xmlns="http://www.w3.org/2000/svg">
<path fill-rule="evenodd" clip-rule="evenodd" d="M2.08337 9.99967C2.08337 9.56245 2.43782 9.20801 2.87504 9.20801H17.125C17.5623 9.20801 17.9167 9.56245 17.9167 9.99967C17.9167 10.4369 17.5623 10.7913 17.125 10.7913H2.87504C2.43782 10.7913 2.08337 10.4369 2.08337 9.99967Z" fill="#A7A7A7"/>
<path fill-rule="evenodd" clip-rule="evenodd" d="M2.08337 5.24967C2.08337 4.81245 2.43782 4.45801 2.87504 4.45801H17.125C17.5623 4.45801 17.9167 4.81245 17.9167 5.24967C17.9167 5.6869 17.5623 6.04134 17.125 6.04134H2.87504C2.43782 6.04134 2.08337 5.6869 2.08337 5.24967Z" fill="#A7A7A7"/>
<path fill-rule="evenodd" clip-rule="evenodd" d="M2.08337 14.7497C2.08337 14.3124 2.43782 13.958 2.87504 13.958H17.125C17.5623 13.958 17.9167 14.3124 17.9167 14.7497C17.9167 15.1869 17.5623 15.5413 17.125 15.5413H2.87504C2.43782 15.5413 2.08337 15.1869 2.08337 14.7497Z" fill="#A7A7A7"/>
</svg>
